<?xml version="1.0" encoding="utf-8"?>
<!-- Generator: Adobe Illustrator 21.1.0, SVG Export Plug-In . SVG Version: 6.00 Build 0)  -->
<svg version="1.1" id="Layer_1" xmlns="http://www.w3.org/2000/svg" xmlns:xlink="http://www.w3.org/1999/xlink" x="0px" y="0px"
	 viewBox="0 0 292.1 141.5" style="enable-background:new 0 0 292.1 141.5;" xml:space="preserve">
<style type="text/css">
	.st0{fill:#F9EDBB;}
	.st1{fill:#2DA9D7;}
	.st2{fill:#454545;}
	.st3{fill:#F64060;}
</style>
<rect class="st0" width="292.1" height="141.5"/>
<g>
	<g>
		<polygon class="st1" points="37.7,93.4 16.9,93.4 8.4,68.1 19,36.5 		"/>
		<polygon class="st1" points="78.8,7.8 30.1,43.7 23.9,25 46.5,7.8 		"/>
		<polygon class="st1" points="27.1,101.6 87.7,101.6 81.8,120.8 54.9,120.8 		"/>
		<polygon class="st1" points="110.1,57 125.6,68.9 118.3,94.7 92.6,113.9 97,99.7 97.1,99.4 		"/>
		<polygon class="st1" points="124.5,57.3 74.6,21 91.3,8.7 116.5,27.2 		"/>
	</g>
	<g>
		<path class="st2" d="M145.6,50.1c-3.2,0-5.7,1.1-7.5,3.4c-1.8,2.3-2.7,5.4-2.7,9.4c0,4.2,0.9,7.3,2.6,9.5c1.8,2.1,4.3,3.2,7.6,3.2
			c1.4,0,2.8-0.1,4.2-0.4c1.4-0.3,2.8-0.7,4.2-1.1v4.8c-2.7,1-5.7,1.5-9.1,1.5c-5,0-8.8-1.5-11.5-4.5c-2.7-3-4-7.3-4-13
			c0-3.5,0.6-6.6,1.9-9.3c1.3-2.7,3.2-4.7,5.6-6.1c2.5-1.4,5.3-2.1,8.6-2.1c3.5,0,6.7,0.7,9.6,2.2l-2,4.6c-1.1-0.5-2.4-1-3.6-1.4
			C148.3,50.4,147,50.1,145.6,50.1z"/>
		<path class="st2" d="M183.6,67c0,4.2-1.1,7.5-3.2,9.8c-2.2,2.4-5.2,3.5-9,3.5c-2.4,0-4.5-0.5-6.4-1.6c-1.8-1.1-3.3-2.6-4.3-4.7
			c-1-2-1.5-4.4-1.5-7.1c0-4.2,1.1-7.4,3.2-9.8c2.1-2.3,5.2-3.5,9.1-3.5c3.7,0,6.7,1.2,8.8,3.6C182.5,59.7,183.6,62.9,183.6,67z
			 M164.8,67c0,5.9,2.2,8.9,6.6,8.9c4.3,0,6.5-3,6.5-8.9c0-5.9-2.2-8.8-6.6-8.8c-2.3,0-4,0.8-5,2.3C165.3,62,164.8,64.1,164.8,67z"
			/>
		<path class="st2" d="M202.2,79.9h-5.6V50.6h-10v-4.8h25.6v4.8h-10V79.9z"/>
		<path class="st2" d="M224.3,80.4c-4,0-7.1-1.2-9.4-3.5c-2.3-2.3-3.4-5.6-3.4-9.6c0-4.2,1-7.5,3.1-9.9c2.1-2.4,5-3.6,8.6-3.6
			c3.4,0,6.1,1,8.1,3.1c2,2.1,3,4.9,3,8.5v3h-17.2c0.1,2.5,0.8,4.4,2,5.8c1.3,1.3,3.1,2,5.4,2c1.5,0,2.9-0.1,4.2-0.4
			c1.3-0.3,2.7-0.8,4.2-1.4v4.4c-1.3,0.6-2.7,1.1-4.1,1.4C227.6,80.2,226,80.4,224.3,80.4z M223.3,57.8c-1.7,0-3.1,0.6-4.2,1.7
			c-1,1.1-1.7,2.7-1.9,4.8h11.7c0-2.1-0.5-3.7-1.5-4.8C226.4,58.4,225,57.8,223.3,57.8z"/>
		<path class="st2" d="M248.4,80.4c-3.9,0-6.9-1.1-8.9-3.4c-2-2.3-3-5.5-3-9.8c0-4.3,1.1-7.7,3.2-10s5.2-3.5,9.2-3.5
			c2.7,0,5.2,0.5,7.3,1.5l-1.7,4.4c-2.3-0.9-4.2-1.4-5.7-1.4c-4.5,0-6.7,3-6.7,8.9c0,2.9,0.6,5.1,1.7,6.5c1.1,1.5,2.7,2.2,4.9,2.2
			c2.4,0,4.7-0.6,6.9-1.8v4.8c-1,0.6-2,1-3.1,1.2C251.3,80.2,250,80.4,248.4,80.4z"/>
		<path class="st2" d="M283,79.9h-5.5V64.1c0-2-0.4-3.5-1.2-4.4c-0.8-1-2.1-1.5-3.8-1.5c-2.3,0-4,0.7-5.1,2.1
			c-1.1,1.4-1.6,3.7-1.6,6.9v12.8h-5.5V43.7h5.5v9.2c0,1.5-0.1,3-0.3,4.7h0.3c0.7-1.2,1.8-2.2,3.1-2.9c1.3-0.7,2.9-1,4.6-1
			c6.2,0,9.4,3.1,9.4,9.4V79.9z"/>
	</g>
</g>
<path class="st3" d="M235.1,114.1c-0.1,0.3-0.2,0.5-0.3,0.7c-0.8,1.9-1.9,3.6-3.4,5c-2.1,1.8-4.6,2.9-7.4,2.8
	c-1.4,0-2.9-0.6-4.3-0.9c-0.3-0.1-0.5-0.1-0.7,0.1c-1,0.9-1.9,1.8-3,2.5c-1.9,1.3-4,2.2-6.4,2c-1.5-0.1-2.9-0.7-4.2-1.4
	c-0.9-0.5-1-0.5-1.6,0.3c-1.2,1.5-2.7,2.5-4.4,3.5c-2,1.2-4.1,2.1-6.4,2.7c-2.7,0.8-5.4,0.8-7.7-1.1c-1.9-1.5-2.7-3.6-2.1-6
	c0.6-2.6,1.3-5.2,1.9-7.8c0.3-1.3,0.7-2.7,1-4c0.1-0.2,0-0.5,0-0.8c-0.1-0.5-0.1-1-0.7-1.2c-0.6-0.2-1.2,0-1.5,0.6
	c-0.4,0.7-0.7,1.5-0.9,2.3c-0.8,2.6-1.5,5.3-2.3,7.9c-0.6,2-1.1,4-1.7,5.9c-0.6,1.9-2.1,2.8-4,2.5c-0.6-0.1-1.1-0.5-1.3-1.1
	c-0.3-0.9-0.2-1.8,0-2.7c0.4-2,0.8-4,1.2-6c0.2-1.1,0.4-2.1,0.6-3.2c0.1-0.8,0.1-1.5-0.4-2.2c-0.3-0.5-0.9-0.8-1.5-0.6
	c-0.7,0.2-1.2,0.7-1.3,1.4c-0.5,2.5-1,5-1.5,7.5c-0.6,3-1.1,6-1.8,8.9c-0.2,1.1-0.7,2.1-1.7,2.8c-0.5,0.3-1.1,0.6-1.7,0.7
	c-1.8,0.4-3.5,0.1-4.9-1.3c-1.1-1.1-1.6-2.4-1.4-4c0.1-1.4,0.3-2.8,0.4-4.3c0.1-1.3,0.3-2.7,0.5-4c0.1-1.3,0.3-2.5,0.5-3.8
	c0.4-2.5,0.5-4.9,1.4-7.3c0.6-1.6,1.8-2.7,3.3-3.4c1.6-0.8,3.1-0.4,4.7,0c0.6,0.2,1.2,0.4,1.8,0.5c0.8,0.2,1.5-0.2,2-0.8
	c0.4-0.5,0.9-1,1.3-1.6c1-1.4,3.5-2.1,4.9-1c0.3,0.3,0.7,0.4,1.1,0.7c0.8,0.5,1,0.5,1.7-0.1c1.6-1.3,3.5-1.5,5.4-1.2
	c1.1,0.2,1.9,1,2.5,1.9c0.9,1.4,0.9,3,0.6,4.6c-0.6,2.9-1.3,5.8-1.8,8.7c-0.3,1.7-0.6,3.5-0.7,5.2c-0.1,0.7,0.1,1.5,0.4,2.2
	c0.5,1,1.5,1.1,2.4,1.1c1.5-0.1,2.9-0.6,4.2-1.3c1.1-0.6,2.2-1.2,3.3-1.8c0.5-0.3,1-0.7,1.5-1.1c0.4-0.3,0.4-0.7,0.1-1
	c-0.7-0.8-1.3-1.5-1.9-2.4c-1.3-1.7-2.4-3.6-2.6-5.8c-0.2-1.9,0.2-3.7,1.8-5c2.3-2,4.5-1.9,6.8-0.1c2,1.6,3,3.8,2.7,6.4
	c-0.1,1.4-0.5,2.9-0.7,4.3c-0.1,0.4,0.1,0.6,0.3,0.8c1.3,0.8,2.7,1.4,4.2,1.7c0.6,0.1,1.1,0.2,1.7,0.2c1.2,0,2.3-0.5,3.1-1.3
	c0.4-0.4,0.4-0.7,0-1.1c-2.9-2.7-4.4-6-4.4-9.9c0-1.5,0.4-2.9,1.8-3.6c0.9-0.4,2-0.6,3-0.7c1.6-0.1,3.2,0.3,4.4,1.5
	c1.5,1.4,2.1,3.2,2,5.2c-0.1,1.5-0.6,2.8-1.2,4.1c-0.2,0.5-0.2,1,0.3,1.2c0.8,0.3,1.6,0.7,2.4,0.9c1.8,0.3,3.5-0.1,5.1-0.9
	c1.7-0.9,2.8-2.4,3.2-4.3c0.5-2.3,0.1-4.6-0.4-6.9c-0.4-1.8-0.8-3.5-1.1-5.3c-0.1-0.6-0.2-0.6-0.8-0.4c-1.5,0.6-3.1,1.2-4.6,1.8
	c-0.5,0.2-1,0.3-1.5,0.5c-1.1,0.4-2,0.1-2.4-1.1c-0.3-1.3-0.7-2.5-1.1-3.8c0-0.1,0-0.1-0.1-0.2c-0.4-1.5-0.1-2.4,1.7-2.7
	c1.9-0.3,3.8-0.6,5.7-0.8c0.9-0.1,1.2-0.4,1.1-1.3c-0.1-0.7-0.2-1.4-0.3-2.2c-0.1-1.1,0.1-1.4,1.2-1.5c0.7-0.1,1.3-0.1,2-0.1
	c0.9,0,1.5,0.6,1.7,1.5c0.2,0.7,0.3,1.5,0.4,2.2c0.1,0.5,0.3,0.8,0.9,0.7c1.7-0.1,3.4-0.2,5.1-0.3c0.8-0.1,1.3,0.2,1.5,0.7
	c0.4,1,0.3,1.7-0.4,2.1c-1,0.6-2.1,1.1-3.1,1.6c-0.7,0.3-1.5,0.6-2.3,0.9c-0.5,0.2-0.7,0.5-0.6,1.1c0.6,2.9,1.1,5.9,1.7,8.8
	c0.3,1.5,0.9,3,1.8,4.4c0.8,1.1,1.7,1.4,3,0.9c1.8-0.7,3.4-1.6,4.6-3.1c0.7-0.8,1.1-1.7,0.9-2.8c-0.3-2-0.6-4.1-0.8-6.1
	c-0.1-0.6-0.1-1.2,0-1.8c0.1-0.3,0.4-0.8,0.6-0.8c1.5-0.3,3-0.6,4.6-0.8c1-0.1,1.8,0.7,1.9,1.7c0.2,1.4,0.3,2.8,0.4,4.3
	c0.2,1.8,0.3,3.5,0.5,5.3c0.1,1.8,1.7,2.4,3.1,2.1c1.2-0.2,1.8-0.8,2-2.1c0.3-1.4,0.3-2.8,0.3-4.2c-0.1-2-0.3-4-0.4-6
	c-0.1-0.8,0.3-1.5,0.9-1.8c0.7-0.3,1.7-0.2,2,0.4c0.3,0.5,0.4,1.2,0.4,1.8c0.2,2.3,0.2,4.5,0.4,6.8c0.1,1.4,1.1,2.2,2.5,2.4
	c0.7,0.1,1.4,0.1,2.1,0.1c1.2-0.1,1.9-1.1,1.9-2.5c0-1.2-0.2-2.4-0.3-3.6c-0.1-1.4-0.4-2.8-0.4-4.2c0-2.1,0.9-4.2,3.2-5.2
	c1.4-0.6,2.8-0.9,4.3-1c2.3-0.2,4.8,0.9,6,3.3c0.9,1.8,1,3.7,0.8,5.7c-0.3,2.3-1.3,4.2-3,5.8c-0.2,0.1-0.2,0.4-0.3,0.6
	c0.3,0.1,0.5,0.2,0.8,0.2c2.2-0.5,4.2-1.4,5.9-2.9c0.4-0.3,0.8-0.6,1.2-0.9c0.4-0.3,0.7-0.1,0.6,0.3c-0.1,0.6-0.2,1.3-0.5,1.9
	c-1.3,2.4-3.3,3.8-5.9,4.5c-1.1,0.3-2.2,0.3-3.4,0.5c-0.8,0.1-1.7,0.2-2.6,0.3c-0.4,0.1-0.6,0.3-0.7,0.7c-0.2,2.9,0,5.8,0.2,8.6
	c0.1,1.8,0.1,3.6,0,5.5c-0.1,1-0.7,1.8-1.7,2.1c-0.6,0.2-1.1,0-1.4-0.5c-0.3-0.4-0.5-0.9-0.7-1.4c-0.7-2.4-1-4.9-1.2-7.4
	c-0.1-1.3-0.2-2.6-0.3-3.8c-0.1-0.9-0.1-1.8-0.2-2.7c-0.1-0.7-0.3-0.9-1-0.9c-1.4,0-2.9,0-4.3-0.1c-1,0-1.7,0.4-2.2,1.2
	c-0.7,1-1.5,2-2.5,2.6c-1.2,0.8-2.7,1-4.1,1c-2.1,0.1-3.9-0.7-5.3-2.2c-0.5-0.5-0.8-1-1.2-1.5c-0.2-0.3-0.4-0.4-0.7-0.1
	c-1.2,0.9-2.4,1.9-3.7,2.7c-1.4,0.9-3,1.5-4.7,1.3c-1.7-0.1-3.1-0.9-4.3-2C235.9,114.9,235.6,114.6,235.1,114.1z M279.5,99.3
	c-0.1-0.2-0.1-0.4-0.2-0.6c-0.4-1.2-1.8-1.5-2.7-0.6c-0.4,0.4-0.7,0.9-0.9,1.5c-0.7,1.8-0.9,3.7-1,5.6c0,0.5,0,1,0.1,1.4
	c0.2,0.9,0.7,1,1.4,0.4c1.3-1.3,2.2-2.8,2.9-4.5C279.5,101.4,279.7,100.4,279.5,99.3z M220.2,111.3c-0.1-0.9-0.5-1.6-1.3-2.1
	c-0.4-0.3-0.9-0.3-1.4-0.1c-0.6,0.3-0.8,0.8-0.7,1.6c0.2,1.5,1.1,2.6,1.9,3.7c0.5,0.6,0.8,0.5,1.1-0.2
	C220.3,113.3,220.3,112.3,220.2,111.3z M205.2,113.8c-0.3-0.5-0.5-1-0.8-1.5c-0.4-0.6-1.2-0.7-1.9-0.4c-0.7,0.3-0.9,0.7-0.7,1.6
	c0.2,0.7,0.5,1.5,0.9,2.2c0.2,0.5,0.6,1,0.9,1.4c0.5,0.6,0.9,0.5,1.1-0.2C205.1,115.9,205.3,114.9,205.2,113.8z"/>
</svg>
